<?xml version="1.0" encoding="UTF-8"?>
<!DOCTYPE svg PUBLIC "-//W3C//DTD SVG 1.1//EN" "http://www.w3.org/Graphics/SVG/1.1/DTD/svg11.dtd">
<!-- Creator: CorelDRAW X6 -->
<svg xmlns="http://www.w3.org/2000/svg" xml:space="preserve" width="182px" height="50px" version="1.1" style="shape-rendering:geometricPrecision; text-rendering:geometricPrecision; image-rendering:optimizeQuality; fill-rule:evenodd; clip-rule:evenodd"
viewBox="0 0 182 50"
 xmlns:xlink="http://www.w3.org/1999/xlink">
 <defs>
  <style type="text/css">
   <![CDATA[
    .fil0 {fill:black}
   ]]>
  </style>
 </defs>
 <g id="Слой_x0020_1">
  <metadata id="CorelCorpID_0Corel-Layer"/>
  <g id="_570141656">
   <path class="fil0" d="M47 16l0 1 3 0c2,0 3,0 3,0 1,1 2,2 2,2 0,1 1,2 1,2 0,1 0,3 0,3 0,1 0,2 0,2 0,2 -1,3 -1,3 -1,1 -2,1 -2,1 -1,1 -3,1 -3,1l-3 0 0 1 -3 0 0 -1 -3 0c-1,0 -2,-1 -2,-1 -1,0 -2,-1 -2,-1 -1,-1 -1,-3 -1,-3 0,-1 0,-2 0,-2 0,-2 0,-3 0,-3 0,-1 1,-2 1,-2 0,-1 1,-1 1,-1 0,0 1,-1 1,-1 1,0 1,0 1,0 1,0 2,0 2,0l2 0 0 -1 3 0zm-3 4l-1 0c-1,0 -1,0 -1,0 -1,0 -1,0 -1,0 -1,0 -1,0 -1,0 0,0 0,1 0,1 -1,0 -1,0 -1,0 0,0 0,1 0,1 0,0 0,1 0,1 0,0 0,1 0,1 0,1 0,2 0,2 0,0 0,1 0,1 1,0 1,0 1,0 0,1 1,1 1,1 1,0 1,0 1,0 0,0 1,0 1,0l1 0 0 -8zm5 8c0,0 1,0 1,0 0,0 1,0 1,0 0,0 1,-1 1,-1 0,0 0,0 0,0 0,-1 1,-1 1,-1 0,-1 0,-2 0,-2 0,-1 0,-2 0,-2 -1,-1 -1,-1 -1,-1 0,-1 -1,-1 -1,-1 -1,0 -2,0 -2,0l-2 0 0 8 2 0z"/>
   <path class="fil0" d="M65 20c1,0 2,0 2,0 1,0 1,1 1,1 0,0 1,1 1,1 0,1 0,2 0,2l0 6c0,0 0,1 0,1 0,0 -1,1 -1,1 0,0 0,0 0,0 -1,0 -1,0 -1,0l-6 0c-1,0 -1,0 -1,0 -1,0 -2,0 -2,0 0,-1 0,-1 0,-1 0,-1 0,-1 0,-1 -1,-1 -1,-1 -1,-1 0,0 0,-1 0,-1 0,-1 1,-1 1,-1 0,-1 0,-2 0,-2 1,0 2,0 2,0 0,-1 1,-1 1,-1l5 0 0 0c0,-1 0,-1 0,-1 0,0 0,-1 0,-1 -1,0 -1,0 -1,0 0,0 -1,0 -1,0l-6 0 0 -2 7 0zm-3 7c-1,0 -1,0 -1,0 0,0 0,0 0,0 -1,0 -1,0 -1,0 0,1 0,1 0,1 0,1 0,1 0,1 0,0 1,1 1,1 0,0 0,0 0,0 0,0 0,0 0,0l4 0c0,0 1,0 1,0 0,0 0,0 0,0 0,0 0,0 0,0 0,0 0,-1 0,-1l0 -2 -4 0z"/>
   <path class="fil0" d="M71 22c0,-1 0,-1 0,-1 0,0 0,-1 0,-1 1,0 1,0 1,0 1,0 1,0 1,0l6 0c0,0 0,0 0,0 1,0 1,0 1,0 0,0 1,0 1,0 0,0 0,1 0,1 1,0 1,1 1,1 0,1 0,1 0,1 0,0 0,1 0,1 0,1 -1,1 -1,1 0,0 0,0 0,0 -1,1 -1,1 -1,1l0 0c1,0 1,0 1,0 0,0 1,1 1,1 0,0 0,1 0,1 0,0 0,1 0,1 0,0 0,0 0,0 0,1 0,1 0,1 0,0 0,1 0,1 -1,0 -1,0 -1,0 0,1 -1,1 -1,1 -1,0 -1,0 -1,0l-6 0c-1,0 -1,0 -1,0 0,0 -1,0 -1,0 0,-1 0,-1 0,-1 0,0 0,-1 0,-1l0 -8zm7 3c0,0 0,0 0,0 1,0 1,-1 1,-1 0,0 0,0 0,0 0,0 0,-1 0,-1 0,0 0,0 0,0 0,-1 0,-1 0,-1 0,0 -1,0 -1,0 0,0 0,0 0,0l-4 0c0,0 0,0 0,0 0,0 0,0 0,0 -1,0 -1,0 -1,0 0,0 0,0 0,0l0 3 5 0zm-5 4c0,0 0,1 0,1 0,0 1,0 1,0 0,0 0,0 0,0 0,0 0,0 0,0l4 0c0,0 0,0 0,0 1,0 1,0 1,0 0,-1 0,-1 0,-1 0,0 0,-1 0,-1 0,0 0,0 0,0 0,-1 0,-1 0,-1 0,0 -1,0 -1,0 0,0 0,0 0,0l-5 0 0 2z"/>
   <path class="fil0" d="M90 20c0,0 1,0 1,0 1,0 1,0 1,0 1,0 2,0 2,0 0,0 1,1 1,1 0,0 1,1 1,1 0,1 0,1 0,1 0,1 0,2 0,2 0,0 0,1 0,1 0,2 0,3 0,3 0,1 -1,2 -1,2 -1,0 -1,1 -1,1 -1,0 -2,0 -2,0 0,0 -1,0 -1,0 -1,0 -1,0 -1,0 -1,0 -1,0 -1,0 -1,0 -2,0 -2,0 0,0 -1,0 -1,0 -1,-1 -1,-1 -1,-1 -1,-1 -1,-1 -1,-1 0,-1 0,-2 0,-2 -1,0 -1,-1 -1,-1 0,-1 0,-1 0,-1 0,0 0,-1 0,-1 0,-1 1,-2 1,-2 0,0 0,-1 0,-1 0,-1 1,-1 1,-1 0,-1 1,-1 1,-1 1,0 1,0 1,0 1,0 2,0 2,0 0,0 1,0 1,0zm-4 6c0,1 0,2 0,2 0,0 1,1 1,1 1,1 1,1 1,1 1,0 2,0 2,0 1,0 1,0 1,0 1,0 2,-1 2,-1 0,-1 1,-1 1,-1 0,-1 0,-2 0,-2 0,0 0,-1 0,-1 0,0 0,-1 0,-1 -1,0 -1,0 -1,0 0,-1 0,-1 0,-1 0,-1 -1,-1 -1,-1 0,0 -1,0 -1,0 0,0 0,0 0,0 -1,0 -1,0 -1,0 0,0 -1,0 -1,0 0,0 -1,0 -1,0 0,0 0,0 0,0 -1,0 -1,1 -1,1 0,0 -1,0 -1,0 0,1 0,1 0,1 0,1 0,1 0,1 0,1 0,1 0,1z"/>
   <path class="fil0" d="M101 36l-3 0 0 -14c0,-1 0,-1 0,-1 0,-1 1,-1 1,-1 0,0 0,0 0,0 1,0 1,0 1,0l5 0c0,0 0,0 0,0 1,0 1,0 1,0 1,0 1,0 1,0 1,1 1,1 1,1 1,1 1,1 1,1 0,1 0,1 0,1 0,1 1,2 1,2 0,0 0,1 0,1 0,0 0,1 0,1 -1,1 -1,1 -1,1 0,1 0,1 0,1 0,1 0,1 0,1 -1,1 -1,1 -1,1 -1,1 -2,1 -2,1 0,0 -1,0 -1,0 0,0 -1,0 -1,0l-3 0 0 4zm3 -6c1,0 1,0 1,0 1,-1 1,-1 1,-1 0,0 1,-1 1,-1 0,-1 0,-2 0,-2 0,-1 0,-2 0,-2 0,0 -1,-1 -1,-1 0,0 0,-1 0,-1 -1,0 -2,0 -2,0l-3 0c0,0 0,0 0,0 0,0 0,0 0,0 0,0 0,0 0,0l0 8 3 0z"/>
   <path class="fil0" d="M120 32l1 -9c0,0 0,0 0,0 0,0 -1,0 -1,0 0,0 0,0 0,0 0,0 0,0 0,0l-5 8c-1,1 -1,1 -1,1 0,0 -1,0 -1,0 -1,0 -1,0 -1,0 0,0 -1,0 -1,0 0,-1 0,-1 0,-1 0,0 0,0 0,0l0 -11 3 0 0 9c0,0 0,0 0,0 0,0 0,0 0,0 0,0 0,0 0,0 0,0 0,0 0,0l6 -9c0,0 1,0 1,0 0,0 0,0 0,0 1,0 1,0 1,0 0,0 0,0 0,0 1,0 1,0 1,0 0,1 0,2 0,2l0 10 -3 0z"/>
   <polygon class="fil0" points="129,32 129,22 124,22 124,20 136,20 136,22 132,22 132,32 "/>
   <polygon class="fil0" points="137,25 145,25 145,27 137,27 "/>
   <path class="fil0" d="M153 23c0,-1 0,-2 0,-2 0,-1 0,-1 0,-1 1,-1 1,-2 1,-2 0,0 1,-1 1,-1 1,0 1,-1 1,-1 1,0 2,0 2,0 1,0 2,0 2,0 1,0 1,0 1,0 1,0 2,0 2,0 1,0 2,0 2,0 1,0 1,0 1,0 1,1 2,1 2,1 1,1 1,3 1,3 1,2 1,4 1,4 0,1 0,2 0,2 0,1 -1,1 -1,1 0,1 0,2 0,2 0,1 -1,2 -1,2 -1,0 -2,1 -2,1 0,0 -1,0 -1,0 -1,0 -2,0 -2,0 -1,0 -2,0 -2,0 0,0 -1,0 -1,0 -1,0 -2,0 -2,0 -1,0 -2,0 -2,0 0,-1 -1,-1 -1,-1 -1,-1 -1,-2 -1,-2 0,0 -1,-1 -1,-1 0,-1 0,-1 0,-1 0,-1 0,-2 0,-2l-2 0 0 7 -3 0 0 -16 3 0 0 7 2 0zm3 1c0,2 0,3 0,3 1,1 1,1 1,1 1,1 1,1 1,1 0,1 1,1 1,1 1,0 1,0 1,0 1,0 1,0 1,0 2,0 3,0 3,0 1,-1 2,-2 2,-2 0,0 0,-1 0,-1 1,-1 1,-3 1,-3 0,-2 -1,-3 -1,-3 0,-1 0,-2 0,-2 -1,0 -1,0 -1,0 -1,-1 -1,-1 -1,-1 -1,0 -2,0 -2,0 0,0 -1,0 -1,0 0,0 -1,0 -1,0 0,0 -1,0 -1,0 0,0 -1,1 -1,1 0,0 -1,0 -1,0 0,1 -1,2 -1,2 0,1 0,3 0,3z"/>
   <path class="fil0" d="M172 32l0 -10c0,-1 0,-1 0,-1 0,0 0,-1 0,-1 0,0 1,0 1,0 0,0 0,0 0,0l9 0 0 2 -7 0c0,0 0,0 0,0 0,0 0,0 0,0 -1,0 -1,0 -1,0 0,1 0,1 0,1l0 9 -2 0z"/>
   <path class="fil0" d="M29 25c0,8 -7,14 -15,14 -8,0 -14,-6 -14,-14 0,0 0,0 0,0 1,2 3,4 6,5 2,3 5,4 8,4 6,0 9,-4 9,-9 0,-5 -3,-9 -9,-9 -1,0 -1,0 -2,0 -1,-1 -2,-2 -3,-3 0,0 0,-1 0,-1 1,-1 3,-1 5,-1 8,0 15,6 15,14zm-17 -3c0,3 -2,6 -5,6 -3,0 -5,-3 -5,-6 0,-3 4,-8 5,-9 1,1 5,6 5,9zm-4 3c0,0 -1,0 -1,0 -1,0 -2,-1 -2,-2 -1,-1 -1,-1 -1,-1 -1,0 -1,1 -1,1 1,2 3,3 4,3 0,0 1,0 1,-1z"/>
  </g>
 </g>
</svg>
